<svg width="136" height="122" viewBox="0 0 136 122" fill="none" xmlns="http://www.w3.org/2000/svg">
<path d="M112.407 0L105.871 10.846L104.371 10.3586C98.5903 8.47814 89.14 8.83021 83.5874 10.3821L82.1174 10.7934L76.0101 0.416628C68.8488 15.2207 69.1397 25.5468 72.8607 32.1766C76.8449 39.2753 85.0791 42.6703 93.9672 42.56C104.347 42.4304 112.913 38.3563 116.76 30.9752C120.363 24.0637 120.1 13.7763 112.407 0ZM82.6956 21.5018C86.6244 21.5231 88.9477 24.7805 89.3953 29.335C81.4929 33.1635 77.9041 30.0613 76.3687 23.6606C78.7925 22.1508 80.9098 21.4924 82.6956 21.5018ZM105.962 21.5018C107.748 21.4922 109.865 22.1508 112.289 23.6608C110.753 30.0614 107.164 33.1635 99.2619 29.335C99.7099 24.7805 102.033 21.5229 105.962 21.5018ZM43.4511 32.3952C43.1901 32.3931 42.9303 32.3946 42.6718 32.3991C36.2461 32.5137 30.7165 34.6629 26.5426 38.0797C17.2914 45.6534 14.3472 59.6169 23.8118 73.6057C28.1331 80.8727 33.2734 85.2003 38.8877 87.3267C45.883 89.9763 53.0816 89.2127 60.1695 88.2061C67.2572 87.1992 74.1929 85.9338 80.8031 86.4062C87.413 86.879 94.0249 88.5823 100.076 95.2058C104.201 99.7216 110.06 94.858 105.148 90.0421C97.6899 82.7298 89.7038 79.9054 81.8568 79.3453C74.0097 78.7852 66.4821 80.3496 59.6663 81.3179C52.8506 82.2863 46.8317 82.7185 41.6601 80.76C38.5958 79.5993 35.632 77.5959 32.8122 74.1029H107.715C110.626 62.9245 110.88 51.3652 108.113 43.7329C103.905 45.5478 99.082 46.4905 94.0164 46.554C87.66 46.6331 81.3547 45.0736 76.3613 41.6752C75.3717 42.3191 74.3581 43.007 73.3179 43.7455L72.0968 44.6128L70.9278 43.676C60.9981 35.724 51.5435 32.4579 43.4511 32.3952Z" fill="black"/>
<path d="M12.3 92.82C13.5 92.82 14.61 92.99 15.63 93.33C16.65 93.67 17.55 94.11 18.33 94.65C19.11 95.19 19.72 95.77 20.16 96.39L18.06 98.58C17.26 97.82 16.38 97.2 15.42 96.72C14.46 96.22 13.42 95.97 12.3 95.97C10.88 95.97 9.59 96.3 8.43 96.96C7.29 97.62 6.39 98.52 5.73 99.66C5.07 100.78 4.74 102.06 4.74 103.5C4.74 104.92 5.09 106.21 5.79 107.37C6.49 108.53 7.42 109.45 8.58 110.13C9.76 110.81 11.04 111.15 12.42 111.15C13.42 111.15 14.36 110.96 15.24 110.58C16.12 110.18 16.83 109.64 17.37 108.96C17.93 108.28 18.21 107.5 18.21 106.62C18.21 106.52 18.21 106.46 18.21 106.44H12.24V103.23H21.54C21.58 103.53 21.61 103.83 21.63 104.13C21.67 104.43 21.69 104.73 21.69 105.03C21.69 106.13 21.52 107.21 21.18 108.27C20.86 109.33 20.35 110.25 19.65 111.03C18.85 112.03 17.81 112.83 16.53 113.43C15.27 114.01 13.87 114.3 12.33 114.3C10.81 114.3 9.39 114.03 8.07 113.49C6.75 112.93 5.59 112.16 4.59 111.18C3.59 110.2 2.81 109.06 2.25 107.76C1.71 106.44 1.44 105.02 1.44 103.5C1.44 101.98 1.71 100.58 2.25 99.3C2.81 98 3.58 96.87 4.56 95.91C5.56 94.93 6.72 94.17 8.04 93.63C9.36 93.09 10.78 92.82 12.3 92.82ZM30.1988 94.83C29.4988 94.83 28.9788 94.65 28.6388 94.29C28.2988 93.93 28.1288 93.46 28.1288 92.88C28.1288 92.38 28.2988 91.93 28.6388 91.53C28.9788 91.13 29.4988 90.93 30.1988 90.93C30.8988 90.93 31.4188 91.11 31.7588 91.47C32.0988 91.83 32.2688 92.3 32.2688 92.88C32.2688 93.38 32.0988 93.83 31.7588 94.23C31.4188 94.63 30.8988 94.83 30.1988 94.83ZM31.7888 114H28.6988V98.25H31.7888V114ZM44.5184 114H41.4284V101.25H38.1584V98.25H41.4284V94.23H44.5184V98.25H48.1784V101.25H44.5184V114ZM63.532 93C65.572 93 67.112 93.45 68.152 94.35C69.192 95.25 69.712 96.56 69.712 98.28C69.712 99.22 69.482 100.06 69.022 100.8C68.582 101.54 67.922 102.12 67.042 102.54C67.702 102.76 68.312 103.1 68.872 103.56C69.452 104 69.922 104.57 70.282 105.27C70.642 105.97 70.822 106.82 70.822 107.82C70.822 109.04 70.612 110.05 70.192 110.85C69.772 111.65 69.222 112.28 68.542 112.74C67.862 113.2 67.112 113.53 66.292 113.73C65.472 113.91 64.652 114 63.832 114H54.772V93H63.532ZM62.992 96.12H58.012V101.7H63.352C64.172 101.68 64.892 101.43 65.512 100.95C66.152 100.47 66.472 99.79 66.472 98.91C66.472 97.91 66.132 97.2 65.452 96.78C64.792 96.34 63.972 96.12 62.992 96.12ZM63.502 104.82H58.012V110.88H63.652C64.792 110.88 65.722 110.63 66.442 110.13C67.162 109.61 67.522 108.82 67.522 107.76C67.522 107 67.312 106.41 66.892 105.99C66.472 105.57 65.952 105.27 65.332 105.09C64.732 104.91 64.122 104.82 63.502 104.82ZM92.0527 98.25V114H88.9327V111.57C88.4527 112.23 87.7427 112.85 86.8027 113.43C85.8627 114.01 84.7727 114.3 83.5327 114.3C82.2127 114.3 81.0027 113.95 79.9027 113.25C78.8227 112.55 77.9627 111.58 77.3227 110.34C76.6827 109.1 76.3627 107.68 76.3627 106.08C76.3627 104.48 76.6927 103.07 77.3527 101.85C78.0127 100.61 78.9227 99.65 80.0827 98.97C81.2427 98.27 82.5627 97.92 84.0427 97.92C85.1427 97.92 86.1027 98.16 86.9227 98.64C87.7627 99.12 88.4327 99.68 88.9327 100.32V98.25H92.0527ZM84.2527 111.45C85.2127 111.45 86.0527 111.22 86.7727 110.76C87.4927 110.28 88.0527 109.64 88.4527 108.84C88.8527 108.02 89.0527 107.1 89.0527 106.08C89.0527 105.08 88.8527 104.18 88.4527 103.38C88.0527 102.58 87.4927 101.95 86.7727 101.49C86.0527 101.01 85.2127 100.77 84.2527 100.77C83.3327 100.77 82.5127 101 81.7927 101.46C81.0727 101.92 80.5127 102.55 80.1127 103.35C79.7127 104.15 79.5127 105.06 79.5127 106.08C79.5127 107.1 79.7127 108.02 80.1127 108.84C80.5127 109.64 81.0727 110.28 81.7927 110.76C82.5127 111.22 83.3327 111.45 84.2527 111.45ZM107.617 97.92C109.037 97.92 110.137 98.21 110.917 98.79C111.697 99.37 112.237 100.15 112.537 101.13C112.857 102.11 113.017 103.2 113.017 104.4V114H109.927V104.61C109.927 103.85 109.827 103.17 109.627 102.57C109.427 101.97 109.087 101.5 108.607 101.16C108.127 100.82 107.457 100.68 106.597 100.74C105.797 100.74 105.087 100.91 104.467 101.25C103.847 101.59 103.357 102.04 102.997 102.6C102.637 103.16 102.457 103.78 102.457 104.46V114H99.367V98.25H102.457V100.74C102.937 100 103.637 99.35 104.557 98.79C105.477 98.21 106.497 97.92 107.617 97.92ZM120.209 114V91.8H123.299V105.3L130.409 98.25H134.579L127.199 105.18L134.789 114H130.829L125.009 107.22L123.299 108.84V114H120.209Z" fill="black"/>
</svg>
